<?xml version="1.0" encoding="UTF-8" standalone="no"?>
<!-- Created with Inkscape (http://www.inkscape.org/) -->

<svg
   xmlns:dc="http://purl.org/dc/elements/1.1/"
   xmlns:cc="http://creativecommons.org/ns#"
   xmlns:rdf="http://www.w3.org/1999/02/22-rdf-syntax-ns#"
   xmlns:svg="http://www.w3.org/2000/svg"
   xmlns="http://www.w3.org/2000/svg"
   xmlns:sodipodi="http://sodipodi.sourceforge.net/DTD/sodipodi-0.dtd"
   xmlns:inkscape="http://www.inkscape.org/namespaces/inkscape"
   width="76.60759mm"
   height="62.970394mm"
   viewBox="0 0 271.44422 223.12344"
   id="svg2"
   version="1.1"
   inkscape:version="0.91 r13725"
   sodipodi:docname="gilkaton.svg">
  <defs
     id="defs4" />
  <sodipodi:namedview
     id="base"
     pagecolor="#ffffff"
     bordercolor="#666666"
     borderopacity="1.0"
     inkscape:pageopacity="0.0"
     inkscape:pageshadow="2"
     inkscape:zoom="0.7"
     inkscape:cx="-97.211768"
     inkscape:cy="270.42462"
     inkscape:document-units="px"
     inkscape:current-layer="layer1"
     showgrid="false"
     fit-margin-left="1"
     fit-margin-top="1"
     fit-margin-right="1"
     fit-margin-bottom="1"
     inkscape:window-width="1920"
     inkscape:window-height="1025"
     inkscape:window-x="0"
     inkscape:window-y="0"
     inkscape:window-maximized="1" />
  <metadata
     id="metadata7">
    <rdf:RDF>
      <cc:Work
         rdf:about="">
        <dc:format>image/svg+xml</dc:format>
        <dc:type
           rdf:resource="http://purl.org/dc/dcmitype/StillImage" />
        <dc:title></dc:title>
      </cc:Work>
    </rdf:RDF>
  </metadata>
  <g
     inkscape:label="Capa 1"
     inkscape:groupmode="layer"
     id="layer1"
     transform="translate(-275.33759,-488.83842)">
    <path
       style="fill:#000000"
       d="m 488.84911,708.26673 c -1.375,-0.282 -3.76562,-1.67964 -5.3125,-3.10584 -2.75189,-2.53723 -2.8125,-3.18221 -2.8125,-29.93203 l 0,-27.33893 3.06818,-3.06818 c 2.95556,-2.95556 3.68968,-3.06818 20.00001,-3.06818 l 16.93181,0 0,-4.14812 c 0,-8.55518 -6.35383,-24.71057 -12.80834,-32.5668 l -2.9494,-3.58993 -5.50052,8.44254 c -3.0253,4.64339 -6.26998,9.21198 -7.21042,10.15242 -1.30643,1.30642 -6.50979,1.70989 -22.05187,1.70989 -18.11949,0 -20.568,-0.24975 -22.41072,-2.28593 -2.95265,-3.26265 -2.61143,-8.44219 0.7094,-10.76819 2.15659,-1.51053 6.29209,-1.94588 18.48444,-1.94588 l 15.7063,0 4.76065,-13.12874 c 6.80818,-18.77533 10.78343,-21.32195 22.64548,-14.50714 19.10436,10.97555 31.28681,34.6173 32.77575,63.60588 0.69472,13.52566 0.60661,14.21993 -2.18129,17.1875 -2.82857,3.01088 -3.37783,3.0925 -20.81235,3.0925 l -17.90711,0 0,19.09686 c 0,14.86253 -0.41141,19.68424 -1.85546,21.74592 -2.12112,3.02831 -7.59269,5.1745 -11.26954,4.42038 z m -116.61305,-55.57566 0.36305,-10.3125 45.625,0 45.625,0 0.36305,10.3125 0.36306,10.3125 -46.35111,0 -46.35111,0 0.36306,-10.3125 z m 1.44008,-19.0625 c -1.73003,-4.50839 0.38528,-5.625 10.65609,-5.625 l 9.93657,0 3.29429,-9.89183 c 3.42745,-10.2917 5.93566,-12.86925 9.27427,-9.53064 1.72585,1.72586 1.5062,3.17995 -2.17833,14.42093 l -4.09772,12.50154 -13.08283,0 c -10.47607,0 -13.22619,-0.3736 -13.80234,-1.875 z m 58.1266,-10.58521 c -3.69672,-11.27814 -3.91773,-12.7364 -2.19187,-14.46226 3.24883,-3.24884 5.50297,-0.89309 8.75665,9.15137 l 3.12463,9.6461 10.55348,0.625 c 10.25705,0.60744 10.55348,0.71278 10.55348,3.75 0,3.11606 -0.0382,3.12601 -13.34255,3.47883 l -13.34256,0.35382 -4.11126,-12.54286 z m 34.37976,-39.93737 c -5.75263,-3.50779 -7.95839,-7.3775 -7.95839,-13.96198 0,-6.51987 2.90918,-11.24504 8.79829,-14.29041 10.39831,-5.37718 22.45171,2.35358 22.45171,14.39997 0,12.51795 -12.89903,20.18951 -23.29161,13.85242 z"
       id="path3395"
       inkscape:connector-curvature="0" />
    <path
       style="fill:#000000"
       d="m 300.79979,537.7984 c -0.45833,-0.45834 -0.83333,-1.72844 -0.83333,-2.82245 0,-1.09401 -1.40625,-4.63074 -3.125,-7.85941 -3.87963,-7.28786 -3.91625,-9.92552 -0.19783,-14.24844 4.01647,-4.66943 10.12919,-4.66943 14.14566,0 3.78845,4.40434 3.69752,8.37895 -0.3497,15.28501 -1.80227,3.07535 -2.93216,5.93626 -2.51084,6.35757 0.42131,0.42132 0.13952,1.52091 -0.62619,2.44354 -1.47188,1.7735 -5.10216,2.24478 -6.50277,0.84418 z m -21.8517,-18.85417 c 0.30268,-1.59569 1.84926,-2.29149 5.71665,-2.57187 4.64232,-0.33657 5.30172,-0.0645 5.30172,2.1875 0,2.22092 -0.78008,2.57187 -5.71666,2.57187 -4.76917,0 -5.64788,-0.36256 -5.30171,-2.1875 z m 38.75,0 c 0.30268,-1.59569 1.84926,-2.29149 5.71665,-2.57187 4.64232,-0.33657 5.30172,-0.0645 5.30172,2.1875 0,2.22092 -0.78008,2.57187 -5.71666,2.57187 -4.76917,0 -5.64788,-0.36256 -5.30171,-2.1875 z m -30.62277,-12.5684 c -3.62634,-3.78508 -4.34289,-6.4941 -1.71772,-6.4941 2.40423,0 8.77449,7.06622 7.79664,8.64843 -1.27742,2.0669 -2.42403,1.66055 -6.07892,-2.15433 z m 27.20336,2.15433 c -0.97785,-1.58221 5.39241,-8.64843 7.79664,-8.64843 2.78484,0 1.817,3.71513 -1.79636,6.89546 -3.87613,3.4116 -4.80709,3.68358 -6.00028,1.75297 z m -12.20285,-4.45572 c -0.47265,-0.47266 -0.85937,-3.29688 -0.85937,-6.27604 0,-4.63148 0.37232,-5.41667 2.56849,-5.41667 2.27916,0 2.52557,0.65782 2.1875,5.83979 -0.35712,5.47399 -1.92321,7.82633 -3.89662,5.85292 z"
       id="path3488"
       inkscape:connector-curvature="0" />
    <path
       style="fill:#000000"
       d="m 374.70066,610.33626 c -2.97345,-1.73908 -5.04,-3.93106 -6.11001,-6.48085 -0.68913,-1.64217 -0.86237,-2.57345 -0.85049,-4.5718 0.0121,-2.03874 0.25604,-3.3338 0.98184,-5.21314 0.23704,-0.61378 0.40622,-1.14073 0.37594,-1.17101 -0.0303,-0.0303 -1.34996,-0.15134 -2.93262,-0.26904 l -2.87758,-0.214 -1.01791,-0.58369 c -1.07774,-0.61801 -1.20323,-0.81933 -0.80199,-1.28672 0.11876,-0.13833 1.38189,-0.95678 2.80696,-1.81876 1.42507,-0.86198 3.32671,-2.01193 4.22587,-2.55543 0.89915,-0.54351 1.63482,-1.02742 1.63482,-1.07535 0,-0.12489 -3.97713,-2.88083 -4.15736,-2.88083 -0.0826,0 -0.12947,-0.0335 -0.10415,-0.0745 0.0253,-0.041 -0.70243,-0.59716 -1.61722,-1.23598 -0.91479,-0.63883 -1.70871,-1.24844 -1.76424,-1.35471 -0.12007,-0.2297 0.0455,-0.73058 0.26788,-0.81014 0.0865,-0.0309 2.26257,-0.27972 4.83582,-0.55284 2.57324,-0.27313 4.69098,-0.51032 4.70609,-0.52709 0.0484,-0.0537 -3.04971,-4.47063 -3.16571,-4.5134 -0.0614,-0.0226 -0.11156,-0.0945 -0.11156,-0.15968 0,-0.0652 -0.251,-0.48514 -0.55779,-0.93319 -0.53808,-0.78585 -0.60849,-1.10893 -0.31187,-1.43103 0.0748,-0.0812 5.75984,-1.14278 7.50149,-1.40078 0.28841,-0.0427 0.52438,-0.0881 0.52438,-0.10078 0,-0.0127 -0.13618,-0.71307 -0.30262,-1.55636 -0.77957,-3.94965 -2.16504,-11.45477 -2.16504,-11.72801 0,-0.36433 0.20887,-0.60125 0.53006,-0.60125 0.39518,0 2.2662,1.08543 4.46695,2.59142 4.59049,3.14128 5.97779,4.07118 6.07138,4.06961 0.0538,-8.2e-4 0.54194,-0.87175 1.08483,-1.93522 0.54288,-1.06346 1.35298,-2.63122 1.80021,-3.48392 1.99159,-3.79718 2.57123,-4.98094 2.49742,-5.10036 -0.0435,-0.0703 -0.0214,-0.0923 0.0491,-0.0487 0.0705,0.0436 0.19516,-0.0827 0.2771,-0.28047 0.0819,-0.19781 0.25841,-0.4587 0.39217,-0.57974 0.23517,-0.21283 0.27752,-0.20267 1.28456,0.30823 0.57275,0.29058 1.09675,0.6318 1.16443,0.75828 0.0677,0.12647 0.12328,0.74719 0.12353,1.37936 2.4e-4,0.63217 0.0364,1.93574 0.0804,2.89683 l 0.0799,1.74744 0.94463,-1.19221 c 0.51955,-0.65572 2.18337,-2.7746 3.69737,-4.70863 1.51401,-1.93402 2.83748,-3.58391 2.94105,-3.66642 0.15395,-0.12265 0.39321,-0.0439 1.31177,0.43184 l 1.12348,0.58185 0.30846,3.39303 c 0.19128,2.10407 0.35533,3.37288 0.43184,3.33999 0.0679,-0.0292 0.61499,-0.71055 1.21584,-1.51416 0.96691,-1.29319 1.07325,-1.48561 0.92537,-1.67431 -0.14909,-0.19025 -0.14497,-0.19592 0.0383,-0.0526 0.17606,0.13766 0.23768,0.11456 0.43184,-0.16193 0.12456,-0.17739 0.34376,-0.47174 0.48713,-0.65411 0.14335,-0.18238 0.93431,-1.23384 1.75768,-2.33658 1.07154,-1.43511 1.56786,-2.00497 1.74623,-2.00497 0.13706,0 0.68945,0.22432 1.22754,0.49849 1.13674,0.5792 0.97322,0.0984 1.36211,4.00499 0.31642,3.17866 0.36676,3.53909 0.48781,3.49296 0.0959,-0.0365 1.19475,-0.99644 2.52861,-2.20882 2.39549,-2.17731 4.44975,-3.93687 4.59624,-3.93687 0.26313,0 2.11074,0.99372 2.17917,1.17206 0.033,0.0861 -0.0241,1.86053 -0.12694,3.94326 -0.10284,2.08274 -0.15595,3.81784 -0.118,3.85578 0.038,0.038 1.31885,-0.1921 2.84646,-0.51121 l 2.77748,-0.5802 1.02054,0.53539 c 1.35124,0.70887 1.36393,0.81608 0.26849,2.26849 -0.45465,0.60281 -1.13141,1.47323 -1.50391,1.93427 -0.37251,0.46105 -0.65106,0.8645 -0.619,0.89656 0.0321,0.0321 0.85861,0.19523 1.83678,0.36261 1.51697,0.25957 1.91908,0.37854 2.7347,0.80913 1.38356,0.73043 1.3919,0.70215 -0.98707,3.34487 -1.0688,1.1873 -2.3247,2.58714 -2.79088,3.11074 l -0.84762,0.95201 1.26403,4.03668 c 0.69522,2.22017 1.34917,4.30151 1.45321,4.6252 0.16344,0.50841 0.16571,0.6324 0.0167,0.91088 -0.17125,0.32 -0.18068,0.32184 -1.28421,0.25102 -0.61143,-0.0392 -2.12973,-0.16213 -3.37401,-0.27309 -1.24429,-0.11097 -2.28075,-0.18335 -2.30324,-0.16086 -0.0225,0.0225 0.12806,1.89121 0.33457,4.1527 0.41139,4.50504 0.40083,4.71304 -0.23899,4.70632 -0.18807,-0.002 -1.35967,-0.24479 -2.60355,-0.5396 -1.5981,-0.37876 -2.27783,-0.49374 -2.3169,-0.39192 -0.0304,0.0793 -0.18532,1.85047 -0.34424,3.93604 -0.35894,4.71062 -0.3605,4.71384 -1.84718,3.82787 -0.72336,-0.43109 -1.92968,-1.28753 -2.27837,-1.61756 -0.79853,-0.75581 -2.77181,-2.26049 -2.85108,-2.17405 -0.055,0.06 -0.92063,1.63594 -1.9236,3.5021 -2.05784,3.82892 -2.10015,3.90077 -2.35507,3.99859 -0.10191,0.0391 -0.62727,-0.18397 -1.1685,-0.49614 -0.86815,-0.50076 -1.11498,-0.73188 -2.1072,-1.97313 -0.61812,-0.77326 -1.16384,-1.40593 -1.2127,-1.40593 -0.0489,0 -0.33262,0.21277 -0.63058,0.47282 -0.59105,0.51587 -4.77727,4.05204 -6.98145,5.89736 -0.75956,0.63589 -1.44632,1.15617 -1.52615,1.15617 -0.0798,0 -0.46503,-0.19433 -0.85602,-0.43184 -0.39099,-0.23751 -0.76442,-0.43184 -0.82985,-0.43184 -0.3184,0 -0.5442,-0.65891 -1.14159,-3.33134 -0.35649,-1.59472 -0.66186,-2.915 -0.67862,-2.93395 -0.0167,-0.019 -0.33238,0.34194 -0.70139,0.80199 -1.72767,2.15387 -3.62771,4.53897 -3.70296,4.64829 -0.12782,0.18571 -0.81691,0.19491 -0.88716,0.0118 -0.0339,-0.0883 -0.38462,-0.33308 -0.77941,-0.54397 -0.64729,-0.34578 -0.81478,-0.52814 -1.70488,-1.85628 l -0.98706,-1.47283 -0.21661,0.45653 c -0.11913,0.25109 -0.71022,1.51145 -1.31353,2.8008 -1.24098,2.65216 -1.35678,2.77544 -2.12866,2.26616 -0.24343,-0.16062 -0.68575,-0.43641 -0.98294,-0.61287 -0.52858,-0.31386 -0.55231,-0.35633 -1.09005,-1.95083 -0.37285,-1.10557 -0.57597,-1.55809 -0.63133,-1.40652 -0.24617,0.67398 -0.39112,2.48947 -0.32935,4.12526 0.0814,2.15616 0.40727,3.39898 1.35935,5.18458 0.57015,1.0693 0.61959,1.22245 0.48792,1.51144 -0.21413,0.46997 -0.66871,0.41204 -1.75578,-0.22377 z m -1.30774,-2.43948 c -0.96785,-1.87162 -1.40583,-5.14174 -1.02648,-7.66416 0.25673,-1.70706 1.23067,-5.02451 1.59412,-5.42992 0.0497,-0.0554 0.47504,0.0952 0.94516,0.33479 l 0.85477,0.43562 0.77918,2.31793 c 0.42855,1.27487 0.82047,2.36256 0.87094,2.41711 0.0505,0.0545 0.2073,-0.16941 0.34851,-0.49768 0.35002,-0.81363 2.12105,-4.51367 2.19668,-4.5893 0.0335,-0.0335 0.43633,0.13121 0.89523,0.36596 0.89447,0.45758 0.91638,0.48222 2.37464,2.67007 0.48934,0.73418 0.92661,1.37745 0.9717,1.4295 0.0451,0.052 0.57709,-0.53094 1.18222,-1.29552 3.60139,-4.55037 4.40378,-5.53342 4.48885,-5.49951 0.052,0.0207 0.45439,0.20429 0.89411,0.40787 l 0.79949,0.37015 0.71229,3.14626 c 0.39175,1.73045 0.76792,3.3791 0.83591,3.66368 l 0.12364,0.51741 1.84777,-1.56617 c 1.01627,-0.86139 2.27945,-1.92706 2.80705,-2.36815 0.5276,-0.4411 1.36907,-1.15905 1.86992,-1.59546 0.50085,-0.4364 0.96695,-0.8381 1.03577,-0.89266 0.0688,-0.0546 0.30483,-0.24316 0.52447,-0.4191 l 0.39935,-0.3199 0.88202,0.47227 c 0.78389,0.41972 1.01263,0.63542 2.05603,1.93886 l 1.17402,1.4666 0.17198,-0.32823 c 0.0946,-0.18053 0.13318,-0.39102 0.0857,-0.46776 -0.0474,-0.0767 -0.0343,-0.10742 0.0292,-0.0682 0.0635,0.0392 0.28028,-0.23944 0.48175,-0.61929 0.50161,-0.94569 1.86585,-3.45117 2.16662,-3.97909 0.13532,-0.23751 0.42065,-0.7758 0.63406,-1.1962 0.34139,-0.67248 0.4283,-0.76147 0.72302,-0.7403 0.18424,0.0133 0.31377,0.0586 0.28783,0.10076 -0.0259,0.0422 0.27097,0.24706 0.65978,0.45529 0.38882,0.20824 1.62021,1.12972 2.73642,2.04773 1.11621,0.91802 2.04824,1.65035 2.07118,1.62741 0.0229,-0.023 0.1755,-1.77639 0.33901,-3.89655 0.16351,-2.12015 0.32135,-3.87889 0.35076,-3.9083 0.0294,-0.0294 1.23911,0.22298 2.6882,0.56088 1.4491,0.3379 2.65568,0.5934 2.68129,0.5678 0.0256,-0.0256 -0.1302,-2.02592 -0.34623,-4.44514 -0.21604,-2.41921 -0.37182,-4.41955 -0.34619,-4.44518 0.0256,-0.0256 1.54265,0.0923 3.37114,0.26208 1.82848,0.16978 3.41366,0.29315 3.5226,0.27415 0.16557,-0.0289 0.0272,-0.58148 -0.84287,-3.36589 -1.51343,-4.84341 -1.7582,-5.65644 -1.75977,-5.84511 -8.2e-4,-0.0932 0.65427,-0.89829 1.45565,-1.78905 0.80138,-0.89076 1.60912,-1.79269 1.79496,-2.0043 0.18585,-0.2116 0.63936,-0.7113 1.0078,-1.11044 0.36844,-0.39914 0.67098,-0.75347 0.67233,-0.7874 10e-4,-0.0339 -0.94603,-0.21399 -2.10527,-0.40012 -1.35327,-0.21729 -2.22538,-0.41788 -2.43645,-0.56039 -0.1808,-0.12209 -0.53694,-0.32944 -0.79142,-0.46078 -0.25448,-0.13134 -0.46269,-0.28542 -0.46269,-0.3424 0,-0.079 1.46607,-2.06766 2.48016,-3.36422 0.0563,-0.072 -1.02003,0.10271 -2.39187,0.38823 -1.37184,0.28552 -2.52201,0.47565 -2.55594,0.42249 -0.0339,-0.0532 -0.33931,-0.24828 -0.67861,-0.43361 -0.3393,-0.18534 -0.67849,-0.39984 -0.75376,-0.47667 -0.10021,-0.1023 -0.0938,-0.94879 0.0239,-3.16257 0.0884,-1.66258 0.16386,-3.1796 0.16769,-3.37114 l 0.007,-0.34826 -0.31501,0.2478 c -0.17326,0.13628 -0.82334,0.70942 -1.44462,1.27363 -1.98706,1.80454 -2.36327,2.14083 -2.88044,2.57477 -0.2787,0.23385 -0.97916,0.85554 -1.55657,1.38154 l -1.04984,0.95635 -0.88023,-0.50962 c -0.48413,-0.28029 -0.88196,-0.54408 -0.88405,-0.5862 -0.0339,-0.68099 -0.72573,-6.83132 -0.7738,-6.8794 -0.0367,-0.0367 -0.1405,0.0657 -0.23064,0.22752 -0.12389,0.22246 -6.58846,8.92733 -6.85043,9.22445 -0.0282,0.032 -0.0899,0.004 -0.13707,-0.0626 -0.0472,-0.0664 -0.3912,-0.28079 -0.76443,-0.4764 -0.37324,-0.1956 -0.71702,-0.3895 -0.76396,-0.43089 -0.0469,-0.0414 -0.22848,-1.6854 -0.40341,-3.65336 -0.17492,-1.96796 -0.3586,-3.73716 -0.40817,-3.93157 -0.0892,-0.34971 -0.0986,-0.3425 -0.88459,0.67861 -0.43695,0.56764 -1.18909,1.53177 -1.67141,2.14251 -0.48232,0.61075 -1.59342,2.02657 -2.46911,3.14627 -0.87569,1.1197 -1.99978,2.54657 -2.49799,3.17082 l -0.90583,1.13501 -0.64253,-0.36621 c -0.3534,-0.20142 -0.72582,-0.41241 -0.82761,-0.46887 -0.20379,-0.11303 -0.31061,-1.16348 -0.44328,-4.35918 l -0.0753,-1.8138 -0.33904,0.64166 c -0.18646,0.35292 -1.02249,1.9742 -1.85784,3.60285 -1.46101,2.84852 -2.28578,4.43407 -2.41662,4.64577 -0.034,0.0551 -0.27809,-0.043 -0.54235,-0.21784 -0.27298,-0.18065 -0.54506,-0.27805 -0.63004,-0.22553 -0.0877,0.0542 -0.11764,0.0408 -0.0724,-0.0325 0.0425,-0.0687 -0.12855,-0.22997 -0.38005,-0.35836 -0.25149,-0.12839 -0.53449,-0.30587 -0.6289,-0.3944 -0.0944,-0.0885 -0.59496,-0.44456 -1.11233,-0.79121 -0.51738,-0.34664 -2.31821,-1.57101 -4.00185,-2.72082 -1.68364,-1.14981 -3.08072,-2.07078 -3.10462,-2.04659 -0.0239,0.0242 0.0866,0.71023 0.24547,1.52456 1.5573,7.98047 2.23725,11.80733 2.10623,11.85408 -0.0738,0.0263 -1.88312,0.35554 -4.02073,0.73157 -2.1376,0.37604 -3.92782,0.69631 -3.97825,0.71171 -0.14251,0.0435 0.88312,1.51295 1.02928,1.47468 0.0712,-0.0186 0.0974,0.0181 0.0581,0.0816 -0.0392,0.0635 0.76585,1.31924 1.78911,2.79051 1.02326,1.47128 1.83414,2.70137 1.80197,2.73355 -0.0322,0.0322 -2.21558,0.28055 -4.85201,0.55196 -2.63643,0.27139 -4.8937,0.53224 -5.01617,0.57964 -0.17307,0.067 0.22539,0.39611 1.78905,1.47765 1.10645,0.7653 2.91103,2.01377 4.01019,2.77439 1.09916,0.76061 1.98558,1.43038 1.96982,1.48837 -0.0259,0.0955 -1.61909,1.08563 -6.35641,3.95037 -1.95528,1.18238 -2.051,1.09276 1.40106,1.31177 2.33141,0.14791 2.34901,0.15119 3.20795,0.59762 0.47503,0.24689 0.8889,0.46526 0.91971,0.48527 0.0308,0.02 -0.18133,0.5086 -0.47143,1.08575 -1.87667,3.73357 -2.25337,7.46443 -1.07037,10.60107 0.17916,0.47502 0.41667,1.00248 0.52782,1.17214 0.11114,0.16965 0.1802,0.30845 0.15347,0.30845 -0.0267,0 0.17775,0.33314 0.45441,0.7403 0.47465,0.69858 1.60569,2.03582 1.72189,2.03582 0.0294,0 -0.0382,-0.1772 -0.1502,-0.39378 z m -12.72707,-19.97859 c -0.52504,-0.33625 -0.51067,-0.40427 0.0308,-0.14603 0.23751,0.11326 0.43184,0.25116 0.43184,0.30646 0,0.13487 -0.003,0.13367 -0.46269,-0.16043 z m -0.89452,-0.47934 c -0.10179,-0.0658 -0.12956,-0.1196 -0.0617,-0.1196 0.0679,0 0.20666,0.0538 0.30845,0.1196 0.10179,0.0658 0.12955,0.1196 0.0617,0.1196 -0.0679,0 -0.20666,-0.0538 -0.30845,-0.1196 z"
       id="path3501"
       inkscape:connector-curvature="0" />
    <g
       id="g3516"
       transform="matrix(0.18461676,0,0,0.18461676,123.81941,506.13687)" />
    <g
       id="g3518"
       transform="matrix(0.18461676,0,0,0.18461676,123.81941,506.13687)" />
    <g
       id="g3520"
       transform="matrix(0.18461676,0,0,0.18461676,123.81941,506.13687)" />
    <g
       id="g3522"
       transform="matrix(0.18461676,0,0,0.18461676,123.81941,506.13687)" />
    <g
       id="g3524"
       transform="matrix(0.18461676,0,0,0.18461676,123.81941,506.13687)" />
    <g
       id="g3526"
       transform="matrix(0.18461676,0,0,0.18461676,123.81941,506.13687)" />
    <g
       id="g3528"
       transform="matrix(0.18461676,0,0,0.18461676,123.81941,506.13687)" />
    <g
       id="g3530"
       transform="matrix(0.18461676,0,0,0.18461676,123.81941,506.13687)" />
    <g
       id="g3532"
       transform="matrix(0.18461676,0,0,0.18461676,123.81941,506.13687)" />
    <g
       id="g3534"
       transform="matrix(0.18461676,0,0,0.18461676,123.81941,506.13687)" />
    <g
       id="g3536"
       transform="matrix(0.18461676,0,0,0.18461676,123.81941,506.13687)" />
    <g
       id="g3538"
       transform="matrix(0.18461676,0,0,0.18461676,123.81941,506.13687)" />
    <g
       id="g3540"
       transform="matrix(0.18461676,0,0,0.18461676,123.81941,506.13687)" />
    <g
       id="g3542"
       transform="matrix(0.18461676,0,0,0.18461676,123.81941,506.13687)" />
    <g
       id="g3544"
       transform="matrix(0.18461676,0,0,0.18461676,123.81941,506.13687)" />
    <path
       style="fill:#000000"
       d="m 388.62586,590.27352 c -0.18555,-0.0677 -0.25755,-0.1742 -0.567,-0.83886 -0.30944,-0.66467 -0.34463,-0.78833 -0.27696,-0.97388 0.0767,-0.21019 0.17419,-0.25754 8.84136,-4.29271 10.3294,-4.80904 9.08231,-4.3948 9.6379,-3.20143 0.307,0.65941 0.34206,0.78328 0.27451,0.96863 -0.0767,0.2102 -0.17419,0.25754 -8.88739,4.31414 -8.71321,4.05659 -8.81233,4.10053 -9.02242,4.02411 z m -2.85493,-6.06673 c -0.14403,-0.0608 -0.25297,-0.22973 -0.52509,-0.81423 -0.29836,-0.64084 -0.33318,-0.76539 -0.26587,-0.95005 0.0769,-0.21094 0.17418,-0.25755 12.93668,-6.19937 12.36567,-5.75707 12.86589,-5.98444 13.04091,-5.91009 0.27936,0.11795 0.92329,1.52708 0.81502,1.78352 -0.0708,0.16768 -1.07293,0.64553 -12.94832,6.17435 -12.3777,5.76267 -12.87831,5.99022 -13.05333,5.91587 z m -2.78268,-6.04234 c -0.18535,-0.0676 -0.25754,-0.17419 -0.56454,-0.83359 -0.34007,-0.73044 -0.34803,-0.76414 -0.23092,-0.99531 l 0.12109,-0.23924 12.72037,-5.9222 c 12.85733,-5.98597 12.92753,-6.01645 13.20518,-5.84797 0.0497,0.0302 0.24661,0.38919 0.43755,0.79767 0.30214,0.6471 0.33714,0.77011 0.26963,0.95524 -0.0769,0.21093 -0.17418,0.25755 -12.91165,6.18772 -12.73748,5.93017 -12.83609,5.97387 -13.04669,5.89767 z"
       id="path3612"
       inkscape:connector-curvature="0" />
    <path
       style="fill:#000000"
       d="m 339.66311,707.36067 c -2.10585,-0.88545 -4.43561,-2.7437 -5.17725,-4.12945 -0.7934,-1.48249 -1.34842,-10.27099 -1.34842,-21.35173 l 0,-18.83217 -17.33142,0 c -15.64099,0 -17.65267,-0.25269 -20.625,-2.59073 l -3.29357,-2.59072 0,-33.74145 c 0,-19.21005 0.51776,-34.7089 1.20223,-35.98784 1.73603,-3.2438 8.07246,-5.50735 12.83944,-4.5866 4.04659,0.7816 45.47694,31.4546 47.59705,35.23851 0.55755,0.9951 0.66133,2.9196 0.23062,4.27665 -1.45492,4.58403 -4.31031,6.23218 -10.79714,6.23218 -5.40554,0 -7.31367,-0.75957 -14.13368,-5.62624 -4.33646,-3.09443 -8.58425,-6.46943 -9.43955,-7.5 -3.09133,-3.72482 -3.74897,-1.64151 -3.74897,11.87624 l 0,13.75 16.30681,0 c 15.64675,0 16.43101,0.1242 19.375,3.06818 l 3.06818,3.06818 0,27.33893 c 0,26.76397 -0.0591,27.39246 -2.8125,29.88427 -3.82802,3.46441 -7.35971,4.11781 -11.91183,2.20379 z"
       id="path3625"
       inkscape:connector-curvature="0" />
    <path
       style="fill:#000000"
       d="m 295.81551,577.50033 c -5.75263,-3.50779 -7.95839,-7.3775 -7.95839,-13.96198 0,-11.9361 12.10502,-19.64089 22.4517,-14.29041 11.99554,6.20313 11.99554,22.59681 0,28.79994 -4.84549,2.5057 -9.7926,2.3188 -14.49331,-0.54755 z"
       id="path3638"
       inkscape:connector-curvature="0" />
  </g>
</svg>
